<svg xmlns="http://www.w3.org/2000/svg" width="1024" height="1024" viewBox="0 0 1024 1024">
  <!-- transparent background; content scaled into the adaptive-icon safe zone -->
  <g transform="translate(512 512) scale(0.6) translate(-512 -500)">
    <g fill="none" stroke="#fff" stroke-width="30" stroke-linecap="round" opacity="0.95">
      <path d="M430 250 q-40 -50 0 -100 q40 -50 0 -100"/>
      <path d="M512 235 q-40 -50 0 -100 q40 -50 0 -100"/>
      <path d="M594 250 q-40 -50 0 -100 q40 -50 0 -100"/>
    </g>
    <path d="M232 470 h560 a40 40 0 0 1 40 40 v10 c0 165 -140 300 -320 300 s-320 -135 -320 -300 v-10 a40 40 0 0 1 40 -40 z" fill="#fff"/>
    <path d="M232 470 h560 a40 40 0 0 1 40 40 v10 c0 30 -8 58 -22 84 h-596 c-14 -26 -22 -54 -22 -84 v-10 a40 40 0 0 1 40 -40 z" fill="#ffe1c2"/>
    <g transform="rotate(32 760 540)">
      <rect x="748" y="360" width="24" height="360" rx="12" fill="#fff"/>
      <ellipse cx="760" cy="360" rx="46" ry="62" fill="#fff"/>
    </g>
  </g>
</svg>
