<svg xmlns="http://www.w3.org/2000/svg" width="1024" height="1024" viewBox="0 0 1024 1024">
  <defs>
    <linearGradient id="bg" x1="0" y1="0" x2="1" y2="1">
      <stop offset="0" stop-color="#ff9a38"/>
      <stop offset="1" stop-color="#f06008"/>
    </linearGradient>
    <radialGradient id="steam" cx="0.5" cy="0.5" r="0.5">
      <stop offset="0" stop-color="#ffffff" stop-opacity="0.9"/>
      <stop offset="1" stop-color="#ffffff" stop-opacity="0"/>
    </radialGradient>
  </defs>
  <rect width="1024" height="1024" rx="220" fill="url(#bg)"/>
  <!-- steam -->
  <g fill="none" stroke="#fff" stroke-width="26" stroke-linecap="round" opacity="0.85">
    <path d="M430 250 q-40 -50 0 -100 q40 -50 0 -100"/>
    <path d="M512 235 q-40 -50 0 -100 q40 -50 0 -100"/>
    <path d="M594 250 q-40 -50 0 -100 q40 -50 0 -100"/>
  </g>
  <!-- bowl -->
  <path d="M232 470 h560 a40 40 0 0 1 40 40 v10 c0 165 -140 300 -320 300 s-320 -135 -320 -300 v-10 a40 40 0 0 1 40 -40 z" fill="#fff"/>
  <path d="M232 470 h560 a40 40 0 0 1 40 40 v10 c0 30 -8 58 -22 84 h-596 c-14 -26 -22 -54 -22 -84 v-10 a40 40 0 0 1 40 -40 z" fill="#ffe1c2"/>
  <!-- rice/curry hint -->
  <ellipse cx="512" cy="500" rx="250" ry="34" fill="#c74809" opacity="0.25"/>
  <!-- spoon -->
  <g transform="rotate(32 760 540)">
    <rect x="748" y="360" width="24" height="360" rx="12" fill="#fff"/>
    <ellipse cx="760" cy="360" rx="46" ry="62" fill="#fff"/>
  </g>
</svg>
